<svg width="167" height="88" viewBox="0 0 167 88" fill="none" xmlns="http://www.w3.org/2000/svg">
<ellipse cx="121" cy="44" rx="46" ry="44" fill="white"/>
<path d="M63.25 66H57.2188L34.3125 30.9375V66H28.2812V20.5H34.3125L57.2812 55.7188V20.5H63.25V66Z" fill="white"/>
<path d="M121.688 45.7188C116.542 44.2396 112.792 42.4271 110.438 40.2812C108.104 38.1146 106.938 35.4479 106.938 32.2812C106.938 28.6979 108.365 25.7396 111.219 23.4062C114.094 21.0521 117.823 19.875 122.406 19.875C125.531 19.875 128.312 20.4792 130.75 21.6875C133.208 22.8958 135.104 24.5625 136.438 26.6875C137.792 28.8125 138.469 31.1354 138.469 33.6562H132.438C132.438 30.9062 131.562 28.75 129.812 27.1875C128.062 25.6042 125.594 24.8125 122.406 24.8125C119.448 24.8125 117.135 25.4688 115.469 26.7812C113.823 28.0729 113 29.875 113 32.1875C113 34.0417 113.781 35.6146 115.344 36.9062C116.927 38.1771 119.604 39.3438 123.375 40.4062C127.167 41.4688 130.125 42.6458 132.25 43.9375C134.396 45.2083 135.979 46.6979 137 48.4062C138.042 50.1146 138.562 52.125 138.562 54.4375C138.562 58.125 137.125 61.0833 134.25 63.3125C131.375 65.5208 127.531 66.625 122.719 66.625C119.594 66.625 116.677 66.0312 113.969 64.8438C111.26 63.6354 109.167 61.9896 107.688 59.9062C106.229 57.8229 105.5 55.4583 105.5 52.8125H111.531C111.531 55.5625 112.542 57.7396 114.562 59.3438C116.604 60.9271 119.323 61.7188 122.719 61.7188C125.885 61.7188 128.312 61.0729 130 59.7812C131.688 58.4896 132.531 56.7292 132.531 54.5C132.531 52.2708 131.75 50.5521 130.188 49.3438C128.625 48.1146 125.792 46.9062 121.688 45.7188Z" fill="black"/>
<rect x="42" y="31" width="4" height="22" fill="#FFA3D0"/>
<path d="M88.5 44C88.5 66.2225 69.6204 84.5 46 84.5C22.3796 84.5 3.5 66.2225 3.5 44C3.5 21.7775 22.3796 3.5 46 3.5C69.6204 3.5 88.5 21.7775 88.5 44Z" stroke="white" stroke-width="7"/>
</svg>
